<?xml version="1.0" standalone="no"?>
<!DOCTYPE svg PUBLIC "-//W3C//DTD SVG 20010904//EN"
 "http://www.w3.org/TR/2001/REC-SVG-20010904/DTD/svg10.dtd">
<svg version="1.0" xmlns="http://www.w3.org/2000/svg"
 width="1047.000000pt" height="575.000000pt" viewBox="0 0 1047.000000 575.000000"
 preserveAspectRatio="xMidYMid meet">
<metadata>
Created by potrace 1.11, written by Peter Selinger 2001-2013
</metadata>
<g transform="translate(0.000000,575.000000) scale(0.100000,-0.100000)"
fill="#000000" stroke="none">
<path d="M421 4052 c-129 -724 -237 -1327 -239 -1339 l-4 -23 444 0 444 0 38
50 c57 74 184 190 257 233 157 92 400 129 612 92 340 -59 579 -297 663 -660
15 -62 19 -117 18 -245 -1 -146 -4 -177 -27 -265 -87 -325 -288 -548 -583
-647 -61 -20 -88 -23 -234 -23 -193 0 -246 11 -386 80 -212 104 -368 323 -406
572 l-12 73 -493 0 c-271 0 -493 -3 -493 -7 0 -5 5 -57 10 -118 36 -373 165
-652 419 -905 184 -183 388 -307 640 -390 238 -78 471 -113 756 -113 326 0
535 46 805 175 356 169 629 437 811 795 l48 95 17 -44 c147 -372 495 -715 886
-872 220 -88 355 -111 653 -111 210 0 254 3 352 23 291 59 584 202 849 414
117 93 242 214 478 458 164 171 189 193 200 178 44 -59 322 -351 426 -446 354
-325 709 -521 1090 -604 92 -19 134 -22 340 -23 260 0 363 14 552 76 383 125
694 392 897 769 239 446 290 1093 126 1595 -189 579 -622 969 -1207 1087 -99
20 -143 23 -348 23 -270 0 -351 -11 -545 -76 -198 -66 -377 -158 -555 -285
-217 -155 -397 -331 -708 -696 l-83 -97 -131 152 c-160 184 -432 459 -548 551
-212 169 -456 304 -675 374 -180 58 -278 74 -500 79 -212 6 -347 -8 -515 -53
-449 -121 -830 -448 -1013 -870 -19 -43 -38 -89 -42 -101 -3 -13 -10 -23 -14
-23 -3 0 -22 30 -40 68 -168 343 -498 623 -856 727 -154 44 -264 59 -455 58
-381 -1 -634 -89 -887 -310 -55 -48 -75 -60 -79 -49 -3 8 37 259 90 559 53
299 96 547 96 550 0 4 455 7 1010 7 l1010 0 0 400 0 400 -1362 0 -1363 0 -234
-1318z m4839 -1032 c41 -11 129 -47 195 -79 225 -108 423 -260 714 -547 l184
-182 -22 -31 c-37 -51 -299 -311 -382 -378 -218 -177 -459 -306 -669 -359
-114 -29 -357 -27 -465 4 -124 36 -209 86 -301 178 -67 67 -91 99 -132 182
-70 139 -87 221 -86 407 0 106 5 170 17 218 60 243 219 459 400 547 120 58
186 70 342 66 93 -3 151 -10 205 -26z m3755 6 c254 -71 450 -281 527 -567 31
-117 31 -355 0 -474 -73 -270 -251 -469 -482 -535 -104 -30 -303 -38 -425 -16
-320 55 -658 268 -991 621 -65 69 -122 132 -127 140 -6 12 24 50 129 161 400
423 668 610 969 680 81 18 318 12 400 -10z"/>
</g>
</svg>
